<svg width="546" height="142" xmlns="http://www.w3.org/2000/svg" xmlns:xlink="http://www.w3.org/1999/xlink" xml:space="preserve" overflow="hidden"><g transform="translate(-650 -270)"><g><rect x="655" y="331" width="537" height="11" fill="#4472C4" fill-opacity="1"/><rect x="750" y="302" width="66" height="68.9997" fill="#F8CBAD" fill-opacity="1"/><rect x="816" y="302" width="24.0001" height="68.9997" fill="#C55A11" fill-opacity="1"/><rect x="840" y="302" width="77" height="68.9997" fill="#548235" fill-opacity="1"/><rect x="917" y="302" width="189" height="68.9997" fill="#8FAADC" fill-opacity="1"/><rect x="1106" y="302" width="20.0002" height="68.9997" fill="#A9A6C0" fill-opacity="1"/><path d="M0 59.1812 25.7565 59.1812 25.7565 7.70351 23.3316 7.70351 28.1658 0 33 7.70351 30.5752 7.70351 30.5752 63.9999 0 63.9999Z" fill="#4472C4" fill-rule="evenodd" fill-opacity="1" transform="matrix(-6.12323e-17 -1 -1 6.12323e-17 815 304)"/><path d="M1127.55 373 1127.55 402.659 1177.13 402.659 1177.13 399.867 1186 405.434 1177.13 411 1177.13 408.208 1122 408.208 1122 373Z" fill="#4472C4" fill-rule="evenodd" fill-opacity="1"/></g></g></svg>